<?xml version="1.0" encoding="UTF-8"?>
<svg width="185px" height="38px" viewBox="0 0 185 38" version="1.1" xmlns="http://www.w3.org/2000/svg" xmlns:xlink="http://www.w3.org/1999/xlink">
    <!-- Generator: Sketch 52.5 (67469) - http://www.bohemiancoding.com/sketch -->
    <title>button</title>
    <desc>Created with Sketch.</desc>
    <g id="Page-1" stroke="none" stroke-width="1" fill="none" fill-rule="evenodd">
        <g id="Artboard" transform="translate(-49.000000, -47.000000)">
            <g id="button" transform="translate(49.000000, 47.000000)">
                <rect id="Rectangle" stroke="#636363" fill="#000000" fill-rule="nonzero" x="0.5" y="0.5" width="184" height="37" rx="5"></rect>
                <path d="M59.1640625,24 L57.4140625,24 L57.4140625,12.7265625 L59.1640625,12.7265625 L59.1640625,24 Z M62.4808401,24 L62.4808401,15.4921875 L64.0980276,15.4921875 L64.0980276,16.84375 L64.2230276,16.84375 C64.6657381,15.8333283 65.5120838,15.328125 66.7620901,15.328125 C67.7100115,15.328125 68.4378688,15.6015598 68.9456838,16.1484375 C69.4534989,16.6953152 69.7074026,17.4765574 69.7074026,18.4921875 L69.7074026,24 L68.0277151,24 L68.0277151,18.9140625 C68.0277151,17.5494723 67.4157421,16.8671875 66.1917776,16.8671875 C65.5719828,16.8671875 65.0784982,17.061196 64.7113088,17.4492188 C64.3441195,17.8372415 64.1605276,18.3619759 64.1605276,19.0234375 L64.1605276,24 L62.4808401,24 Z M72.5632427,17.8984375 C72.5632427,17.1484338 72.8731354,16.5325545 73.4929302,16.0507812 C74.112725,15.569008 74.9043837,15.328125 75.8679302,15.328125 C76.8262683,15.328125 77.5996981,15.5390604 78.1882427,15.9609375 C78.7767873,16.3828146 79.1127215,16.9687462 79.1960552,17.71875 L77.5866802,17.71875 C77.5085548,17.4010401 77.3197546,17.1510426 77.020274,16.96875 C76.7207933,16.7864574 76.3366825,16.6953125 75.8679302,16.6953125 C75.3939695,16.6953125 75.0007443,16.7981761 74.6882427,17.0039062 C74.3757411,17.2096364 74.2194927,17.4765609 74.2194927,17.8046875 C74.2194927,18.0598971 74.3288666,18.2708325 74.5476177,18.4375 C74.7663688,18.6041675 75.1075112,18.7395828 75.5710552,18.84375 L76.9851177,19.171875 C77.8028301,19.3593759 78.4030845,19.638019 78.785899,20.0078125 C79.1687134,20.377606 79.3601177,20.8723927 79.3601177,21.4921875 C79.3601177,22.2838581 79.0293918,22.9270809 78.3679302,23.421875 C77.7064686,23.9166691 76.862727,24.1640625 75.8366802,24.1640625 C74.8262585,24.1640625 74.0098604,23.9492209 73.3874615,23.5195312 C72.7650625,23.0898416 72.4174097,22.4973996 72.3444927,21.7421875 L74.0241802,21.7421875 C74.1335557,22.0755225 74.3444911,22.3359366 74.6569927,22.5234375 C74.9694943,22.7109384 75.3757402,22.8046875 75.8757427,22.8046875 C76.401787,22.8046875 76.8314702,22.6979177 77.1648052,22.484375 C77.4981402,22.2708323 77.6648052,21.9947934 77.6648052,21.65625 C77.6648052,21.1614559 77.2481427,20.8151052 76.4148052,20.6171875 L74.9304302,20.2734375 C74.1179261,20.0807282 73.5202759,19.7942727 73.1374615,19.4140625 C72.754647,19.0338523 72.5632427,18.528649 72.5632427,17.8984375 Z M82.6065828,13.375 L84.2862703,13.375 L84.2862703,15.53125 L86.1300203,15.53125 L86.1300203,16.9453125 L84.2862703,16.9453125 L84.2862703,21.3203125 C84.2862703,21.763023 84.3826235,22.0872386 84.5753328,22.2929688 C84.7680421,22.4986989 85.0727265,22.6015625 85.4893953,22.6015625 C85.6560628,22.6015625 85.8696023,22.5885418 86.1300203,22.5625 L86.1300203,23.9609375 C85.7966853,24.0182295 85.4920008,24.046875 85.2159578,24.046875 C84.2836615,24.046875 83.6156994,23.8697934 83.2120515,23.515625 C82.8084037,23.1614566 82.6065828,22.5729208 82.6065828,21.75 L82.6065828,16.9453125 L81.2550203,16.9453125 L81.2550203,15.53125 L82.6065828,15.53125 L82.6065828,13.375 Z M91.5796104,22.7265625 C92.2098219,22.7265625 92.7345562,22.5494809 93.1538292,22.1953125 C93.5731021,21.8411441 93.7827354,21.3984402 93.7827354,20.8671875 L93.7827354,20.15625 L91.7046104,20.2890625 C91.1212742,20.325521 90.6915909,20.4453115 90.4155479,20.6484375 C90.1395049,20.8515635 90.0014854,21.1406231 90.0014854,21.515625 C90.0014854,21.8906269 90.1473173,22.1861968 90.4389854,22.4023438 C90.7306535,22.6184907 91.1108581,22.7265625 91.5796104,22.7265625 Z M91.1499229,24.140625 C90.3165854,24.140625 89.6356026,23.9075544 89.1069542,23.4414062 C88.5783057,22.9752581 88.3139854,22.3593788 88.3139854,21.59375 C88.3139854,20.8333295 88.5874202,20.2356793 89.1342979,19.8007812 C89.6811756,19.3658832 90.4624178,19.1171878 91.4780479,19.0546875 L93.7827354,18.921875 L93.7827354,18.1875 C93.7827354,17.7343727 93.6342994,17.38672 93.3374229,17.1445312 C93.0405464,16.9023425 92.6082591,16.78125 92.0405479,16.78125 C91.5717956,16.78125 91.1824765,16.8632804 90.8725792,17.0273438 C90.5626818,17.1914071 90.3608609,17.4244777 90.2671104,17.7265625 L88.6421104,17.7265625 C88.7254442,16.9973922 89.0835135,16.4153668 89.7163292,15.9804688 C90.3491448,15.5455707 91.1499181,15.328125 92.1186729,15.328125 C93.1811782,15.328125 94.0027846,15.5794246 94.5835167,16.0820312 C95.1642487,16.5846379 95.4546104,17.2864538 95.4546104,18.1875 L95.4546104,24 L93.8374229,24 L93.8374229,22.8046875 L93.7046104,22.8046875 C93.4494008,23.231773 93.0991439,23.5611968 92.6538292,23.7929688 C92.2085144,24.0247407 91.7072174,24.140625 91.1499229,24.140625 Z M98.537013,24 L98.537013,15.4921875 L100.154201,15.4921875 L100.154201,16.84375 L100.279201,16.84375 C100.721911,15.8333283 101.568257,15.328125 102.818263,15.328125 C103.766184,15.328125 104.494042,15.6015598 105.001857,16.1484375 C105.509672,16.6953152 105.763576,17.4765574 105.763576,18.4921875 L105.763576,24 L104.083888,24 L104.083888,18.9140625 C104.083888,17.5494723 103.471915,16.8671875 102.247951,16.8671875 C101.628156,16.8671875 101.134671,17.061196 100.767482,17.4492188 C100.400292,17.8372415 100.216701,18.3619759 100.216701,19.0234375 L100.216701,24 L98.537013,24 Z M109.408478,13.375 L111.088166,13.375 L111.088166,15.53125 L112.931916,15.53125 L112.931916,16.9453125 L111.088166,16.9453125 L111.088166,21.3203125 C111.088166,21.763023 111.184519,22.0872386 111.377228,22.2929688 C111.569937,22.4986989 111.874622,22.6015625 112.291291,22.6015625 C112.457958,22.6015625 112.671498,22.5885418 112.931916,22.5625 L112.931916,23.9609375 C112.598581,24.0182295 112.293896,24.046875 112.017853,24.046875 C111.085557,24.046875 110.417595,23.8697934 110.013947,23.515625 C109.610299,23.1614566 109.408478,22.5729208 109.408478,21.75 L109.408478,16.9453125 L108.056916,16.9453125 L108.056916,15.53125 L109.408478,15.53125 L109.408478,13.375 Z M120.862346,12.7265625 L124.932658,12.7265625 C126.604542,12.7265625 127.906612,13.217443 128.838908,14.1992188 C129.771205,15.1809945 130.237346,16.5572828 130.237346,18.328125 C130.237346,20.1302173 129.773809,21.5260367 128.846721,22.515625 C127.919633,23.5052133 126.614958,24 124.932658,24 L120.862346,24 L120.862346,12.7265625 Z M122.612346,14.3203125 L122.612346,22.40625 L124.737346,22.40625 C125.919643,22.40625 126.834999,22.0533889 127.48344,21.3476562 C128.13188,20.6419236 128.456096,19.6432356 128.456096,18.3515625 C128.456096,17.0807228 128.129276,16.0911494 127.475627,15.3828125 C126.821978,14.6744756 125.909227,14.3203125 124.737346,14.3203125 L122.612346,14.3203125 Z M138.077561,17.359375 C137.702559,16.9583313 137.205168,16.7578125 136.585373,16.7578125 C135.965579,16.7578125 135.455167,16.9583313 135.054123,17.359375 C134.65308,17.7604187 134.429124,18.2942675 134.382248,18.9609375 L138.679123,18.9609375 C138.65829,18.2890591 138.457771,17.7552103 138.077561,17.359375 Z M138.671311,21.703125 L140.288498,21.703125 C140.095789,22.4687538 139.67522,23.0703103 139.02678,23.5078125 C138.378339,23.9453147 137.569753,24.1640625 136.600998,24.1640625 C135.382242,24.1640625 134.422616,23.7721393 133.722092,22.9882812 C133.021568,22.2044232 132.671311,21.1328193 132.671311,19.7734375 C132.671311,18.4140557 133.025474,17.3333373 133.733811,16.53125 C134.442148,15.7291627 135.395263,15.328125 136.593186,15.328125 C137.775483,15.328125 138.70386,15.7083295 139.378342,16.46875 C140.052825,17.2291705 140.390061,18.2786391 140.390061,19.6171875 L140.390061,20.203125 L134.382248,20.203125 L134.382248,20.296875 C134.40829,21.0468787 134.624434,21.6406228 135.030686,22.078125 C135.436938,22.5156272 135.975995,22.734375 136.647873,22.734375 C137.67392,22.734375 138.348393,22.3906284 138.671311,21.703125 Z M147.511526,15.3515625 C148.594865,15.3515625 149.454231,15.7460898 150.089651,16.5351562 C150.725071,17.3242227 151.042776,18.3932224 151.042776,19.7421875 C151.042776,21.0911526 150.726373,22.1614544 150.093557,22.953125 C149.460742,23.7447956 148.605281,24.140625 147.527151,24.140625 C146.922981,24.140625 146.391737,24.0143242 145.933401,23.7617188 C145.475065,23.5091133 145.133923,23.1588564 144.909964,22.7109375 L144.777151,22.7109375 L144.777151,26.828125 L143.097464,26.828125 L143.097464,15.4921875 L144.714651,15.4921875 L144.714651,16.8984375 L144.839651,16.8984375 C145.094861,16.4140601 145.45944,16.0351576 145.933401,15.7617188 C146.407362,15.4882799 146.933398,15.3515625 147.511526,15.3515625 Z M147.034964,22.6328125 C147.748509,22.6328125 148.307097,22.3763046 148.710745,21.8632812 C149.114393,21.3502579 149.316214,20.6432337 149.316214,19.7421875 C149.316214,18.8411413 149.114393,18.1354192 148.710745,17.625 C148.307097,17.1145808 147.751113,16.859375 147.042776,16.859375 C146.334439,16.859375 145.774549,17.118487 145.363089,17.6367188 C144.951628,18.1549505 144.745901,18.8593705 144.745901,19.75 C144.745901,20.6354211 144.951628,21.337237 145.363089,21.8554688 C145.774549,22.3737005 146.331835,22.6328125 147.034964,22.6328125 Z M153.828304,24 L153.828304,12.171875 L155.507991,12.171875 L155.507991,24 L153.828304,24 Z M162.309144,22.671875 C163.033106,22.671875 163.594298,22.4153671 163.992737,21.9023438 C164.391177,21.3893204 164.590394,20.6692755 164.590394,19.7421875 C164.590394,18.8203079 164.391177,18.1028671 163.992737,17.5898438 C163.594298,17.0768204 163.033106,16.8203125 162.309144,16.8203125 C161.579973,16.8203125 161.017479,17.0755183 160.621644,17.5859375 C160.225808,18.0963567 160.027894,18.8150995 160.027894,19.7421875 C160.027894,20.6744838 160.225808,21.3958308 160.621644,21.90625 C161.017479,22.4166692 161.579973,22.671875 162.309144,22.671875 Z M162.309144,24.1640625 C161.059137,24.1640625 160.077376,23.7708373 159.363831,22.984375 C158.650286,22.1979127 158.293519,21.1171944 158.293519,19.7421875 C158.293519,18.372389 158.651588,17.2942748 159.367737,16.5078125 C160.083887,15.7213502 161.064346,15.328125 162.309144,15.328125 C163.548733,15.328125 164.526588,15.7213502 165.242737,16.5078125 C165.958887,17.2942748 166.316956,18.372389 166.316956,19.7421875 C166.316956,21.1171944 165.960189,22.1979127 165.246644,22.984375 C164.533098,23.7708373 163.553942,24.1640625 162.309144,24.1640625 Z M169.539984,27.0859375 C169.248316,27.0859375 169.016547,27.0729168 168.844671,27.046875 L168.844671,25.6015625 C168.964464,25.6223959 169.146753,25.6328125 169.391546,25.6328125 C169.79259,25.6328125 170.112899,25.5416676 170.352484,25.359375 C170.592068,25.1770824 170.784775,24.872398 170.930609,24.4453125 L171.055609,24.03125 L167.977484,15.4921875 L169.805609,15.4921875 L171.938421,22.25 L172.071234,22.25 L174.196234,15.4921875 L175.977484,15.4921875 L172.805609,24.3515625 C172.441024,25.3828177 172.023059,26.0963522 171.551703,26.4921875 C171.080346,26.8880228 170.40978,27.0859375 169.539984,27.0859375 Z" id="Instant-Deploy" fill="#FFFFFF"></path>
                <polygon id="Path" fill="#4A4A4A" points="48 37 48 1 49 1 49 37"></polygon>
                <path d="M15.5714286,13 L30.4285714,13 C30.7442857,13 31,12.7016667 31,12.3333333 L31,9.66666667 C31,9.29833333 30.7442857,9 30.4285714,9 L15.5714286,9 C15.2557143,9 15,9.29833333 15,9.66666667 L15,12.3333333 C15,12.7016667 15.2557143,13 15.5714286,13 Z M36.4285714,17 L21.5714286,17 C21.2557143,17 21,17.2983333 21,17.6666667 L21,20.3333333 C21,20.7016667 21.2557143,21 21.5714286,21 L36.4285714,21 C36.7442857,21 37,20.7016667 37,20.3333333 L37,17.6666667 C37,17.2983333 36.7442857,17 36.4285714,17 Z M30.4285714,25 L15.5714286,25 C15.2557143,25 15,25.2983333 15,25.6666667 L15,28.3333333 C15,28.7016667 15.2557143,29 15.5714286,29 L30.4285714,29 C30.7442857,29 31,28.7016667 31,28.3333333 L31,25.6666667 C31,25.2983333 30.7442857,25 30.4285714,25 Z" id="Shape" fill="#FFFFFF" fill-rule="nonzero"></path>
            </g>
        </g>
    </g>
</svg>