<?xml version="1.0" encoding="UTF-8"?>
<svg width="185px" height="31px" viewBox="0 0 185 31" version="1.1" xmlns="http://www.w3.org/2000/svg" xmlns:xlink="http://www.w3.org/1999/xlink">
    <!-- Generator: Sketch 52.5 (67469) - http://www.bohemiancoding.com/sketch -->
    <title>button</title>
    <desc>Created with Sketch.</desc>
    <defs>
        <linearGradient x1="100%" y1="50%" x2="0%" y2="50%" id="linearGradient-1">
            <stop stop-color="#1374EF" offset="0%"></stop>
            <stop stop-color="#1269D3" offset="100%"></stop>
        </linearGradient>
    </defs>
    <g id="Page-1" stroke="none" stroke-width="1" fill="none" fill-rule="evenodd">
        <g id="Artboard" transform="translate(-59.000000, -187.000000)">
            <g id="button" transform="translate(59.000000, 187.000000)">
                <rect id="Rectangle" stroke="#1769CD" fill="#1374EF" fill-rule="nonzero" x="0.5" y="0.5" width="184" height="30" rx="5"></rect>
                <rect id="Rectangle" fill="url(#linearGradient-1)" fill-rule="nonzero" transform="translate(19.500000, 15.500000) scale(-1, 1) translate(-19.500000, -15.500000) " x="2" y="1" width="35" height="29" rx="3"></rect>
                <text id="Deploy-to-Containerf" font-family="Roboto-Regular, Roboto" font-size="14" font-weight="normal" letter-spacing="-0.170000002" fill="#FFFFFF">
                    <tspan x="42.5" y="20">Deploy </tspan>
                    <tspan x="87.131289" y="20" fill-opacity="0.758123868">to Containerful</tspan>
                </text>
                <path d="M11.4642857,11 L23.5357143,11 C23.7922321,11 24,10.7016667 24,10.3333333 L24,7.66666667 C24,7.29833333 23.7922321,7 23.5357143,7 L11.4642857,7 C11.2077679,7 11,7.29833333 11,7.66666667 L11,10.3333333 C11,10.7016667 11.2077679,11 11.4642857,11 Z M28.5357143,13 L16.4642857,13 C16.2077679,13 16,13.2983333 16,13.6666667 L16,16.3333333 C16,16.7016667 16.2077679,17 16.4642857,17 L28.5357143,17 C28.7922321,17 29,16.7016667 29,16.3333333 L29,13.6666667 C29,13.2983333 28.7922321,13 28.5357143,13 Z M23.5357143,19 L11.4642857,19 C11.2077679,19 11,19.2983333 11,19.6666667 L11,22.3333333 C11,22.7016667 11.2077679,23 11.4642857,23 L23.5357143,23 C23.7922321,23 24,22.7016667 24,22.3333333 L24,19.6666667 C24,19.2983333 23.7922321,19 23.5357143,19 Z" id="Shape" fill="#FFFFFF" fill-rule="nonzero"></path>
                <path d="M37,1 L37,30" id="Line" stroke-opacity="0.114158741" stroke="#000000" stroke-linecap="square" fill-rule="nonzero"></path>
            </g>
        </g>
    </g>
</svg>