<?xml version="1.0" encoding="UTF-8"?>
<svg width="185px" height="31px" viewBox="0 0 185 31" version="1.1" xmlns="http://www.w3.org/2000/svg" xmlns:xlink="http://www.w3.org/1999/xlink">
    <!-- Generator: Sketch 52.5 (67469) - http://www.bohemiancoding.com/sketch -->
    <title>button</title>
    <desc>Created with Sketch.</desc>
    <defs>
        <linearGradient x1="100%" y1="50%" x2="0%" y2="50%" id="linearGradient-1">
            <stop stop-color="#1374EF" offset="0%"></stop>
            <stop stop-color="#1269D3" offset="100%"></stop>
        </linearGradient>
    </defs>
    <g id="Page-1" stroke="none" stroke-width="1" fill="none" fill-rule="evenodd">
        <g id="Artboard" transform="translate(-59.000000, -187.000000)" fill-rule="nonzero">
            <g id="button" transform="translate(59.000000, 187.000000)">
                <rect id="Rectangle" stroke="#1769CD" fill="#1374EF" x="0.5" y="0.5" width="184" height="30" rx="5"></rect>
                <rect id="Rectangle" fill="url(#linearGradient-1)" transform="translate(19.500000, 15.500000) scale(-1, 1) translate(-19.500000, -15.500000) " x="2" y="1" width="35" height="29" rx="3"></rect>
                <path d="M91.6728516,10.8125 L91.6728516,12.6035156 L93.0537109,12.6035156 L93.0537109,13.5810547 L91.6728516,13.5810547 L91.6728516,18.1679688 C91.6728516,18.4641942 91.7343744,18.6863599 91.8574219,18.8344727 C91.9804694,18.9825854 92.1901027,19.0566406 92.4863281,19.0566406 C92.6321622,19.0566406 92.832681,19.0292971 93.0878906,18.9746094 L93.0878906,20 C92.7552067,20.0911463 92.4316422,20.1367188 92.1171875,20.1367188 C91.5520805,20.1367188 91.125978,19.965822 90.8388672,19.6240234 C90.5517564,19.2822249 90.4082031,18.7968781 90.4082031,18.1679688 L90.4082031,13.5810547 L89.0615234,13.5810547 L89.0615234,12.6035156 L90.4082031,12.6035156 L90.4082031,10.8125 L91.6728516,10.8125 Z M93.8885937,16.2333984 C93.8885937,15.5087854 94.0310077,14.8570992 94.3158398,14.2783203 C94.600672,13.6995414 94.9971524,13.2529313 95.505293,12.9384766 C96.0134335,12.6240219 96.5933431,12.4667969 97.2450391,12.4667969 C98.2522056,12.4667969 99.0668133,12.8154262 99.6888867,13.5126953 C100.31096,14.2099644 100.621992,15.137364 100.621992,16.2949219 L100.621992,16.3837891 C100.621992,17.1038447 100.484135,17.7498344 100.208418,18.3217773 C99.9327004,18.8937203 99.5384987,19.3391911 99.0258008,19.6582031 C98.5131029,19.9772151 97.9240788,20.1367188 97.2587109,20.1367188 C96.2561018,20.1367188 95.4437726,19.7880894 94.8216992,19.0908203 C94.1996258,18.3935512 93.8885937,17.4707089 93.8885937,16.3222656 L93.8885937,16.2333984 Z M95.1600781,16.3837891 C95.1600781,17.2041057 95.3503431,17.8626277 95.7308789,18.359375 C96.1114147,18.8561223 96.6206869,19.1044922 97.2587109,19.1044922 C97.9012923,19.1044922 98.4117038,18.8527043 98.7899609,18.3491211 C99.168218,17.8455378 99.3573437,17.140304 99.3573437,16.2333984 C99.3573437,15.4221965 99.1648001,14.7648137 98.779707,14.2612305 C98.394614,13.7576472 97.8830631,13.5058594 97.2450391,13.5058594 C96.620687,13.5058594 96.1171113,13.7542293 95.7342969,14.2509766 C95.3514825,14.7477238 95.1600781,15.4586542 95.1600781,16.3837891 Z M112.853281,16.8417969 C112.730234,17.8945365 112.341729,18.7068656 111.687754,19.2788086 C111.033779,19.8507516 110.164485,20.1367188 109.079844,20.1367188 C107.904057,20.1367188 106.961846,19.7151735 106.253184,18.8720703 C105.544521,18.0289671 105.190195,16.9010487 105.190195,15.4882812 L105.190195,14.53125 C105.190195,13.6061152 105.355395,12.7926467 105.685801,12.0908203 C106.016206,11.3889939 106.484463,10.8500995 107.090586,10.4741211 C107.696709,10.0981427 108.398525,9.91015625 109.196055,9.91015625 C110.253352,9.91015625 111.100999,10.2052379 111.739023,10.7954102 C112.377047,11.3855824 112.748463,12.2024687 112.853281,13.2460938 L111.533945,13.2460938 C111.420012,12.453121 111.172782,11.878908 110.792246,11.5234375 C110.41171,11.167967 109.879652,10.9902344 109.196055,10.9902344 C108.357509,10.9902344 107.700126,11.3001271 107.223887,11.9199219 C106.747647,12.5397166 106.509531,13.4215438 106.509531,14.5654297 L106.509531,15.5292969 C106.509531,16.6093804 106.735115,17.4684213 107.186289,18.1064453 C107.637463,18.7444693 108.268642,19.0634766 109.079844,19.0634766 C109.809014,19.0634766 110.368416,18.8982764 110.758066,18.5678711 C111.147717,18.2374658 111.406341,17.6621135 111.533945,16.8417969 L112.853281,16.8417969 Z M113.941094,16.2333984 C113.941094,15.5087854 114.083508,14.8570992 114.36834,14.2783203 C114.653172,13.6995414 115.049652,13.2529313 115.557793,12.9384766 C116.065934,12.6240219 116.645843,12.4667969 117.297539,12.4667969 C118.304706,12.4667969 119.119313,12.8154262 119.741387,13.5126953 C120.36346,14.2099644 120.674492,15.137364 120.674492,16.2949219 L120.674492,16.3837891 C120.674492,17.1038447 120.536635,17.7498344 120.260918,18.3217773 C119.9852,18.8937203 119.590999,19.3391911 119.078301,19.6582031 C118.565603,19.9772151 117.976579,20.1367188 117.311211,20.1367188 C116.308602,20.1367188 115.496273,19.7880894 114.874199,19.0908203 C114.252126,18.3935512 113.941094,17.4707089 113.941094,16.3222656 L113.941094,16.2333984 Z M115.212578,16.3837891 C115.212578,17.2041057 115.402843,17.8626277 115.783379,18.359375 C116.163915,18.8561223 116.673187,19.1044922 117.311211,19.1044922 C117.953792,19.1044922 118.464204,18.8527043 118.842461,18.3491211 C119.220718,17.8455378 119.409844,17.140304 119.409844,16.2333984 C119.409844,15.4221965 119.2173,14.7648137 118.832207,14.2612305 C118.447114,13.7576472 117.935563,13.5058594 117.297539,13.5058594 C116.673187,13.5058594 116.169611,13.7542293 115.786797,14.2509766 C115.403982,14.7477238 115.212578,15.4586542 115.212578,16.3837891 Z M123.286719,12.6035156 L123.327734,13.5332031 C123.892841,12.8222621 124.631115,12.4667969 125.542578,12.4667969 C127.105737,12.4667969 127.894141,13.348624 127.907812,15.1123047 L127.907812,20 L126.643164,20 L126.643164,15.1054688 C126.638607,14.572263 126.5167,14.1780612 126.277441,13.9228516 C126.038182,13.667642 125.665628,13.5400391 125.159766,13.5400391 C124.749607,13.5400391 124.389585,13.649413 124.079687,13.8681641 C123.76979,14.0869152 123.528256,14.3740217 123.355078,14.7294922 L123.355078,20 L122.09043,20 L122.09043,12.6035156 L123.286719,12.6035156 Z M131.360859,10.8125 L131.360859,12.6035156 L132.741719,12.6035156 L132.741719,13.5810547 L131.360859,13.5810547 L131.360859,18.1679688 C131.360859,18.4641942 131.422382,18.6863599 131.54543,18.8344727 C131.668477,18.9825854 131.87811,19.0566406 132.174336,19.0566406 C132.32017,19.0566406 132.520689,19.0292971 132.775898,18.9746094 L132.775898,20 C132.443214,20.0911463 132.11965,20.1367188 131.805195,20.1367188 C131.240088,20.1367188 130.813986,19.965822 130.526875,19.6240234 C130.239764,19.2822249 130.096211,18.7968781 130.096211,18.1679688 L130.096211,13.5810547 L128.749531,13.5810547 L128.749531,12.6035156 L130.096211,12.6035156 L130.096211,10.8125 L131.360859,10.8125 Z M138.614687,20 C138.54177,19.8541659 138.482526,19.5944029 138.436953,19.2207031 C137.84906,19.8313833 137.147244,20.1367188 136.331484,20.1367188 C135.602314,20.1367188 135.004176,19.9305034 134.537051,19.5180664 C134.069926,19.1056294 133.836367,18.5826855 133.836367,17.9492188 C133.836367,17.1790326 134.12917,16.5808941 134.714785,16.1547852 C135.3004,15.7286763 136.124122,15.515625 137.185977,15.515625 L138.416445,15.515625 L138.416445,14.9345703 C138.416445,14.4925108 138.284285,14.1404635 138.019961,13.878418 C137.755637,13.6163724 137.365992,13.4853516 136.851016,13.4853516 C136.399841,13.4853516 136.02159,13.5992827 135.71625,13.8271484 C135.41091,14.0550142 135.258242,14.3307275 135.258242,14.6542969 L133.986758,14.6542969 C133.986758,14.2851544 134.117779,13.9285499 134.379824,13.5844727 C134.64187,13.2403954 134.997335,12.9681 135.44623,12.7675781 C135.895126,12.5670563 136.388448,12.4667969 136.926211,12.4667969 C137.778429,12.4667969 138.446065,12.6798481 138.929141,13.105957 C139.412216,13.5320659 139.662864,14.1188114 139.681094,14.8662109 L139.681094,18.2705078 C139.681094,18.9495477 139.767681,19.4895813 139.940859,19.890625 L139.940859,20 L138.614687,20 Z M136.516055,19.0361328 C136.912541,19.0361328 137.288514,18.9335948 137.643984,18.7285156 C137.999455,18.5234365 138.256939,18.2568376 138.416445,17.9287109 L138.416445,16.4111328 L137.425234,16.4111328 C135.875747,16.4111328 135.101016,16.8645788 135.101016,17.7714844 C135.101016,18.1679707 135.233176,18.4778635 135.4975,18.7011719 C135.761824,18.9244803 136.101339,19.0361328 136.516055,19.0361328 Z M142.867539,20 L141.602891,20 L141.602891,12.6035156 L142.867539,12.6035156 L142.867539,20 Z M141.500352,10.6416016 C141.500352,10.4365224 141.563014,10.2633471 141.68834,10.1220703 C141.813666,9.98079356 141.999374,9.91015625 142.245469,9.91015625 C142.491564,9.91015625 142.678411,9.98079356 142.806016,10.1220703 C142.93362,10.2633471 142.997422,10.4365224 142.997422,10.6416016 C142.997422,10.8466807 142.93362,11.0175774 142.806016,11.1542969 C142.678411,11.2910163 142.491564,11.359375 142.245469,11.359375 C141.999374,11.359375 141.813666,11.2910163 141.68834,11.1542969 C141.563014,11.0175774 141.500352,10.8466807 141.500352,10.6416016 Z M145.917266,12.6035156 L145.958281,13.5332031 C146.523388,12.8222621 147.261662,12.4667969 148.173125,12.4667969 C149.736284,12.4667969 150.524687,13.348624 150.538359,15.1123047 L150.538359,20 L149.273711,20 L149.273711,15.1054688 C149.269154,14.572263 149.147247,14.1780612 148.907988,13.9228516 C148.668729,13.667642 148.296174,13.5400391 147.790312,13.5400391 C147.380154,13.5400391 147.020132,13.649413 146.710234,13.8681641 C146.400337,14.0869152 146.158803,14.3740217 145.985625,14.7294922 L145.985625,20 L144.720977,20 L144.720977,12.6035156 L145.917266,12.6035156 Z M155.344922,20.1367188 C154.342313,20.1367188 153.526566,19.8074577 152.897656,19.1489258 C152.268747,18.4903938 151.954297,17.609706 151.954297,16.5068359 L151.954297,16.2744141 C151.954297,15.5406864 152.094432,14.8855823 152.374707,14.309082 C152.654982,13.7325818 153.046905,13.2814144 153.550488,12.9555664 C154.054072,12.6297184 154.599802,12.4667969 155.187695,12.4667969 C156.149289,12.4667969 156.896677,12.7835255 157.429883,13.4169922 C157.963089,14.0504589 158.229687,14.9573509 158.229687,16.1376953 L158.229687,16.6640625 L153.218945,16.6640625 C153.237175,17.3932328 153.450226,17.9822569 153.858105,18.4311523 C154.265985,18.8800478 154.784372,19.1044922 155.413281,19.1044922 C155.859898,19.1044922 156.238149,19.0133473 156.548047,18.8310547 C156.857944,18.6487621 157.1291,18.4072281 157.361523,18.1064453 L158.133984,18.7080078 C157.51419,19.6604865 156.584511,20.1367188 155.344922,20.1367188 Z M155.187695,13.5058594 C154.677276,13.5058594 154.248895,13.6915672 153.902539,14.0629883 C153.556183,14.4344094 153.341993,14.9550748 153.259961,15.625 L156.965039,15.625 L156.965039,15.5292969 C156.928581,14.8867155 156.755405,14.3888364 156.445508,14.0356445 C156.13561,13.6824527 155.716344,13.5058594 155.187695,13.5058594 Z M163.097773,13.7382812 C162.906366,13.70638 162.699012,13.6904297 162.475703,13.6904297 C161.646272,13.6904297 161.083452,14.0436163 160.787227,14.75 L160.787227,20 L159.522578,20 L159.522578,12.6035156 L160.753047,12.6035156 L160.773555,13.4580078 C161.18827,12.7971972 161.776155,12.4667969 162.537227,12.4667969 C162.783322,12.4667969 162.970169,12.4986976 163.097773,12.5625 L163.097773,13.7382812 Z M164.814492,20 L164.814492,13.5810547 L163.645547,13.5810547 L163.645547,12.6035156 L164.814492,12.6035156 L164.814492,11.8447266 C164.814492,11.0517538 165.026404,10.4388042 165.450234,10.0058594 C165.874065,9.5729145 166.473342,9.35644531 167.248086,9.35644531 C167.539754,9.35644531 167.829139,9.3951819 168.11625,9.47265625 L168.047891,10.4980469 C167.833697,10.457031 167.605835,10.4365234 167.364297,10.4365234 C166.954139,10.4365234 166.63741,10.5561511 166.414102,10.7954102 C166.190793,11.0346692 166.079141,11.3776019 166.079141,11.8242188 L166.079141,12.6035156 L167.658242,12.6035156 L167.658242,13.5810547 L166.079141,13.5810547 L166.079141,20 L164.814492,20 Z M173.44918,19.2685547 C172.95699,19.8473336 172.234666,20.1367188 171.282187,20.1367188 C170.493772,20.1367188 169.893355,19.9077171 169.480918,19.449707 C169.068481,18.9916969 168.859987,18.3138066 168.85543,17.4160156 L168.85543,12.6035156 L170.120078,12.6035156 L170.120078,17.3818359 C170.120078,18.5029353 170.575803,19.0634766 171.487266,19.0634766 C172.453416,19.0634766 173.095988,18.7034541 173.415,17.9833984 L173.415,12.6035156 L174.679648,12.6035156 L174.679648,20 L173.476523,20 L173.44918,19.2685547 Z M177.80457,20 L176.539922,20 L176.539922,9.5 L177.80457,9.5 L177.80457,20 Z" id="Combined-Shape" fill-opacity="0.704738451" fill="#FFFFFF"></path>
                <path d="M43.6552734,20 L43.6552734,10.046875 L46.4648438,10.046875 C47.3307335,10.046875 48.0963508,10.2382793 48.7617188,10.6210938 C49.4270867,11.0039082 49.9409162,11.5484991 50.3032227,12.2548828 C50.6655292,12.9612666 50.8489583,13.7724564 50.8535156,14.6884766 L50.8535156,15.3242188 C50.8535156,16.2630255 50.6723651,17.0856084 50.3100586,17.7919922 C49.9477521,18.4983759 49.4305047,19.0406882 48.7583008,19.4189453 C48.0860969,19.7972024 47.3033899,19.9908854 46.4101562,20 L43.6552734,20 Z M44.9677734,11.1269531 L44.9677734,18.9267578 L46.3486328,18.9267578 C47.3603566,18.9267578 48.1476209,18.6123078 48.7104492,17.9833984 C49.2732776,17.354489 49.5546875,16.4589902 49.5546875,15.296875 L49.5546875,14.7158203 C49.5546875,13.5856063 49.2892279,12.7071971 48.7583008,12.0805664 C48.2273736,11.4539357 47.4742887,11.1360678 46.4990234,11.1269531 L44.9677734,11.1269531 Z M55.5370312,20.1367188 C54.5344221,20.1367188 53.718675,19.8074577 53.0897656,19.1489258 C52.4608562,18.4903938 52.1464062,17.609706 52.1464062,16.5068359 L52.1464062,16.2744141 C52.1464062,15.5406864 52.2865416,14.8855823 52.5668164,14.309082 C52.8470912,13.7325818 53.2390144,13.2814144 53.7425977,12.9555664 C54.2461809,12.6297184 54.7919111,12.4667969 55.3798047,12.4667969 C56.341398,12.4667969 57.0887864,12.7835255 57.6219922,13.4169922 C58.155198,14.0504589 58.4217969,14.9573509 58.4217969,16.1376953 L58.4217969,16.6640625 L53.4110547,16.6640625 C53.4292839,17.3932328 53.6423352,17.9822569 54.0502148,18.4311523 C54.4580945,18.8800478 54.9764812,19.1044922 55.6053906,19.1044922 C56.0520074,19.1044922 56.4302589,19.0133473 56.7401562,18.8310547 C57.0500536,18.6487621 57.3212098,18.4072281 57.5536328,18.1064453 L58.3260937,18.7080078 C57.706299,19.6604865 56.7766208,20.1367188 55.5370312,20.1367188 Z M55.3798047,13.5058594 C54.8693855,13.5058594 54.4410043,13.6915672 54.0946484,14.0629883 C53.7482925,14.4344094 53.534102,14.9550748 53.4520703,15.625 L57.1571484,15.625 L57.1571484,15.5292969 C57.1206899,14.8867155 56.9475146,14.3888364 56.6376172,14.0356445 C56.3277198,13.6824527 55.9084532,13.5058594 55.3798047,13.5058594 Z M65.9627344,16.3837891 C65.9627344,17.5094457 65.70525,18.4163377 65.1902734,19.1044922 C64.6752969,19.7926467 63.9780382,20.1367188 63.0984766,20.1367188 C62.2006856,20.1367188 61.4943125,19.8518909 60.9793359,19.2822266 L60.9793359,22.84375 L59.7146875,22.84375 L59.7146875,12.6035156 L60.8699609,12.6035156 L60.9314844,13.4238281 C61.4464609,12.7858041 62.1619485,12.4667969 63.0779687,12.4667969 C63.9666451,12.4667969 64.6696003,12.8017545 65.1868555,13.4716797 C65.7041107,14.1416049 65.9627344,15.0735617 65.9627344,16.2675781 L65.9627344,16.3837891 Z M64.6980859,16.2402344 C64.6980859,15.4062458 64.5203533,14.7477238 64.1648828,14.2646484 C63.8094123,13.7815731 63.3217869,13.5400391 62.7019922,13.5400391 C61.9363634,13.5400391 61.3621503,13.8795539 60.9793359,14.5585938 L60.9793359,18.0927734 C61.357593,18.767256 61.9363633,19.1044922 62.7156641,19.1044922 C63.3217869,19.1044922 63.8037157,18.8640975 64.1614648,18.3833008 C64.519214,17.9025041 64.6980859,17.1881558 64.6980859,16.2402344 Z M68.7732031,20 L67.5085547,20 L67.5085547,9.5 L68.7732031,9.5 L68.7732031,20 Z M70.2916797,16.2333984 C70.2916797,15.5087854 70.4340936,14.8570992 70.7189258,14.2783203 C71.0037579,13.6995414 71.4002383,13.2529313 71.9083789,12.9384766 C72.4165195,12.6240219 72.996429,12.4667969 73.648125,12.4667969 C74.6552915,12.4667969 75.4698992,12.8154262 76.0919726,13.5126953 C76.7140461,14.2099644 77.0250781,15.137364 77.0250781,16.2949219 L77.0250781,16.3837891 C77.0250781,17.1038447 76.8872214,17.7498344 76.6115039,18.3217773 C76.3357864,18.8937203 75.9415846,19.3391911 75.4288867,19.6582031 C74.9161888,19.9772151 74.3271648,20.1367188 73.6617969,20.1367188 C72.6591877,20.1367188 71.8468586,19.7880894 71.2247851,19.0908203 C70.6027117,18.3935512 70.2916797,17.4707089 70.2916797,16.3222656 L70.2916797,16.2333984 Z M71.5631641,16.3837891 C71.5631641,17.2041057 71.7534291,17.8626277 72.1339648,18.359375 C72.5145006,18.8561223 73.0237728,19.1044922 73.6617969,19.1044922 C74.3043782,19.1044922 74.8147898,18.8527043 75.1930469,18.3491211 C75.571304,17.8455378 75.7604297,17.140304 75.7604297,16.2333984 C75.7604297,15.4221965 75.567886,14.7648137 75.182793,14.2612305 C74.7976999,13.7576472 74.286149,13.5058594 73.648125,13.5058594 C73.0237729,13.5058594 72.5201972,13.7542293 72.1373828,14.2509766 C71.7545684,14.7477238 71.5631641,15.4586542 71.5631641,16.3837891 Z M80.7583984,18.1474609 L82.4810547,12.6035156 L83.8345703,12.6035156 L80.8609375,21.1416016 C80.4006487,22.3720765 79.6692107,22.9873047 78.6666016,22.9873047 L78.4273437,22.9667969 L77.9556641,22.8779297 L77.9556641,21.8525391 L78.2974609,21.8798828 C78.7258485,21.8798828 79.0596668,21.7932951 79.2989258,21.6201172 C79.5381848,21.4469392 79.7352857,21.1302106 79.8902344,20.6699219 L80.1705078,19.9179688 L77.5318359,12.6035156 L78.9126953,12.6035156 L80.7583984,18.1474609 Z" id="Combined-Shape" fill="#FFFFFF"></path>
                <path d="M11.4642857,11 L23.5357143,11 C23.7922321,11 24,10.7016667 24,10.3333333 L24,7.66666667 C24,7.29833333 23.7922321,7 23.5357143,7 L11.4642857,7 C11.2077679,7 11,7.29833333 11,7.66666667 L11,10.3333333 C11,10.7016667 11.2077679,11 11.4642857,11 Z M28.5357143,13 L16.4642857,13 C16.2077679,13 16,13.2983333 16,13.6666667 L16,16.3333333 C16,16.7016667 16.2077679,17 16.4642857,17 L28.5357143,17 C28.7922321,17 29,16.7016667 29,16.3333333 L29,13.6666667 C29,13.2983333 28.7922321,13 28.5357143,13 Z M23.5357143,19 L11.4642857,19 C11.2077679,19 11,19.2983333 11,19.6666667 L11,22.3333333 C11,22.7016667 11.2077679,23 11.4642857,23 L23.5357143,23 C23.7922321,23 24,22.7016667 24,22.3333333 L24,19.6666667 C24,19.2983333 23.7922321,19 23.5357143,19 Z" id="Shape" fill="#FFFFFF"></path>
                <path d="M37,1 L37,30" id="Line" stroke-opacity="0.114158741" stroke="#000000" stroke-linecap="square"></path>
            </g>
        </g>
    </g>
</svg>